<svg width="304" height="29" viewBox="0 0 304 29" fill="none" xmlns="http://www.w3.org/2000/svg">
<path d="M14.6094 21.3027C14.6094 20.8457 14.5391 20.4355 14.3984 20.0723C14.2695 19.6973 14.0234 19.3574 13.6602 19.0527C13.2969 18.7363 12.7871 18.4258 12.1309 18.1211C11.4746 17.8164 10.625 17.5 9.58203 17.1719C8.42188 16.7969 7.32031 16.375 6.27734 15.9062C5.24609 15.4375 4.33203 14.8926 3.53516 14.2715C2.75 13.6387 2.12891 12.9062 1.67188 12.0742C1.22656 11.2422 1.00391 10.2754 1.00391 9.17383C1.00391 8.10742 1.23828 7.14062 1.70703 6.27344C2.17578 5.39453 2.83203 4.64453 3.67578 4.02344C4.51953 3.39062 5.51562 2.9043 6.66406 2.56445C7.82422 2.22461 9.0957 2.05469 10.4785 2.05469C12.3652 2.05469 14.0117 2.39453 15.418 3.07422C16.8242 3.75391 17.9141 4.68555 18.6875 5.86914C19.4727 7.05273 19.8652 8.40625 19.8652 9.92969H14.627C14.627 9.17969 14.4688 8.52344 14.1523 7.96094C13.8477 7.38672 13.3789 6.93555 12.7461 6.60742C12.125 6.2793 11.3398 6.11523 10.3906 6.11523C9.47656 6.11523 8.71484 6.25586 8.10547 6.53711C7.49609 6.80664 7.03906 7.17578 6.73438 7.64453C6.42969 8.10156 6.27734 8.61719 6.27734 9.19141C6.27734 9.625 6.38281 10.0176 6.59375 10.3691C6.81641 10.7207 7.14453 11.0488 7.57812 11.3535C8.01172 11.6582 8.54492 11.9453 9.17773 12.2148C9.81055 12.4844 10.543 12.748 11.375 13.0059C12.7695 13.4277 13.9941 13.9023 15.0488 14.4297C16.1152 14.957 17.0059 15.5488 17.7207 16.2051C18.4355 16.8613 18.9746 17.6055 19.3379 18.4375C19.7012 19.2695 19.8828 20.2129 19.8828 21.2676C19.8828 22.3809 19.666 23.377 19.2324 24.2559C18.7988 25.1348 18.1719 25.8789 17.3516 26.4883C16.5312 27.0977 15.5527 27.5605 14.416 27.877C13.2793 28.1934 12.0078 28.3516 10.6016 28.3516C9.33594 28.3516 8.08789 28.1875 6.85742 27.8594C5.62695 27.5195 4.50781 27.0098 3.5 26.3301C2.50391 25.6504 1.70703 24.7832 1.10938 23.7285C0.511719 22.6738 0.212891 21.4258 0.212891 19.9844H5.50391C5.50391 20.7812 5.62695 21.4551 5.87305 22.0059C6.11914 22.5566 6.46484 23.002 6.91016 23.3418C7.36719 23.6816 7.90625 23.9277 8.52734 24.0801C9.16016 24.2324 9.85156 24.3086 10.6016 24.3086C11.5156 24.3086 12.2656 24.1797 12.8516 23.9219C13.4492 23.6641 13.8887 23.3066 14.1699 22.8496C14.4629 22.3926 14.6094 21.877 14.6094 21.3027ZM34.4023 23.4473V8.98047H39.4648V28H34.7012L34.4023 23.4473ZM34.9648 19.5449L36.459 19.5098C36.459 20.7754 36.3125 21.9531 36.0195 23.043C35.7266 24.1211 35.2871 25.0586 34.7012 25.8555C34.1152 26.6406 33.377 27.2559 32.4863 27.7012C31.5957 28.1348 30.5469 28.3516 29.3398 28.3516C28.4141 28.3516 27.5586 28.2227 26.7734 27.9648C26 27.6953 25.332 27.2793 24.7695 26.7168C24.2188 26.1426 23.7852 25.4102 23.4688 24.5195C23.1641 23.6172 23.0117 22.5332 23.0117 21.2676V8.98047H28.0742V21.3027C28.0742 21.8652 28.1387 22.3398 28.2676 22.7266C28.4082 23.1133 28.6016 23.4297 28.8477 23.6758C29.0938 23.9219 29.3809 24.0977 29.709 24.2031C30.0488 24.3086 30.4238 24.3613 30.834 24.3613C31.877 24.3613 32.6973 24.1504 33.2949 23.7285C33.9043 23.3066 34.332 22.7324 34.5781 22.0059C34.8359 21.2676 34.9648 20.4473 34.9648 19.5449ZM48.2891 13.041V28H43.2266V8.98047H47.9727L48.2891 13.041ZM47.5508 17.8223H46.1797C46.1797 16.416 46.3613 15.1504 46.7246 14.0254C47.0879 12.8887 47.5977 11.9219 48.2539 11.125C48.9102 10.3164 49.6895 9.70117 50.5918 9.2793C51.5059 8.8457 52.5254 8.62891 53.6504 8.62891C54.541 8.62891 55.3555 8.75781 56.0938 9.01562C56.832 9.27344 57.4648 9.68359 57.9922 10.2461C58.5312 10.8086 58.9414 11.5527 59.2227 12.4785C59.5156 13.4043 59.6621 14.5352 59.6621 15.8711V28H54.5645V15.8535C54.5645 15.0098 54.4473 14.3535 54.2129 13.8848C53.9785 13.416 53.6328 13.0879 53.1758 12.9004C52.7305 12.7012 52.1797 12.6016 51.5234 12.6016C50.8438 12.6016 50.252 12.7363 49.748 13.0059C49.2559 13.2754 48.8457 13.6504 48.5176 14.1309C48.2012 14.5996 47.9609 15.1504 47.7969 15.7832C47.6328 16.416 47.5508 17.0957 47.5508 17.8223ZM77.1523 21.3027C77.1523 20.8457 77.082 20.4355 76.9414 20.0723C76.8125 19.6973 76.5664 19.3574 76.2031 19.0527C75.8398 18.7363 75.3301 18.4258 74.6738 18.1211C74.0176 17.8164 73.168 17.5 72.125 17.1719C70.9648 16.7969 69.8633 16.375 68.8203 15.9062C67.7891 15.4375 66.875 14.8926 66.0781 14.2715C65.293 13.6387 64.6719 12.9062 64.2148 12.0742C63.7695 11.2422 63.5469 10.2754 63.5469 9.17383C63.5469 8.10742 63.7812 7.14062 64.25 6.27344C64.7188 5.39453 65.375 4.64453 66.2188 4.02344C67.0625 3.39062 68.0586 2.9043 69.207 2.56445C70.3672 2.22461 71.6387 2.05469 73.0215 2.05469C74.9082 2.05469 76.5547 2.39453 77.9609 3.07422C79.3672 3.75391 80.457 4.68555 81.2305 5.86914C82.0156 7.05273 82.4082 8.40625 82.4082 9.92969H77.1699C77.1699 9.17969 77.0117 8.52344 76.6953 7.96094C76.3906 7.38672 75.9219 6.93555 75.2891 6.60742C74.668 6.2793 73.8828 6.11523 72.9336 6.11523C72.0195 6.11523 71.2578 6.25586 70.6484 6.53711C70.0391 6.80664 69.582 7.17578 69.2773 7.64453C68.9727 8.10156 68.8203 8.61719 68.8203 9.19141C68.8203 9.625 68.9258 10.0176 69.1367 10.3691C69.3594 10.7207 69.6875 11.0488 70.1211 11.3535C70.5547 11.6582 71.0879 11.9453 71.7207 12.2148C72.3535 12.4844 73.0859 12.748 73.918 13.0059C75.3125 13.4277 76.5371 13.9023 77.5918 14.4297C78.6582 14.957 79.5488 15.5488 80.2637 16.2051C80.9785 16.8613 81.5176 17.6055 81.8809 18.4375C82.2441 19.2695 82.4258 20.2129 82.4258 21.2676C82.4258 22.3809 82.209 23.377 81.7754 24.2559C81.3418 25.1348 80.7148 25.8789 79.8945 26.4883C79.0742 27.0977 78.0957 27.5605 76.959 27.877C75.8223 28.1934 74.5508 28.3516 73.1445 28.3516C71.8789 28.3516 70.6309 28.1875 69.4004 27.8594C68.1699 27.5195 67.0508 27.0098 66.043 26.3301C65.0469 25.6504 64.25 24.7832 63.6523 23.7285C63.0547 22.6738 62.7559 21.4258 62.7559 19.9844H68.0469C68.0469 20.7812 68.1699 21.4551 68.416 22.0059C68.6621 22.5566 69.0078 23.002 69.4531 23.3418C69.9102 23.6816 70.4492 23.9277 71.0703 24.0801C71.7031 24.2324 72.3945 24.3086 73.1445 24.3086C74.0586 24.3086 74.8086 24.1797 75.3945 23.9219C75.9922 23.6641 76.4316 23.3066 76.7129 22.8496C77.0059 22.3926 77.1523 21.877 77.1523 21.3027ZM94.4492 28.3516C92.9727 28.3516 91.6484 28.1172 90.4766 27.6484C89.3047 27.168 88.3086 26.5059 87.4883 25.6621C86.6797 24.8184 86.0586 23.8398 85.625 22.7266C85.1914 21.6016 84.9746 20.4062 84.9746 19.1406V18.4375C84.9746 16.9961 85.1797 15.6777 85.5898 14.4824C86 13.2871 86.5859 12.25 87.3477 11.3711C88.1211 10.4922 89.0586 9.81836 90.1602 9.34961C91.2617 8.86914 92.5039 8.62891 93.8867 8.62891C95.2344 8.62891 96.4297 8.85156 97.4727 9.29688C98.5156 9.74219 99.3887 10.375 100.092 11.1953C100.807 12.0156 101.346 13 101.709 14.1484C102.072 15.2852 102.254 16.5508 102.254 17.9453V20.0547H87.1367V16.6797H97.2793V16.293C97.2793 15.5898 97.1504 14.9629 96.8926 14.4121C96.6465 13.8496 96.2715 13.4043 95.7676 13.0762C95.2637 12.748 94.6191 12.584 93.834 12.584C93.166 12.584 92.5918 12.7305 92.1113 13.0234C91.6309 13.3164 91.2383 13.7266 90.9336 14.2539C90.6406 14.7812 90.418 15.4023 90.2656 16.1172C90.125 16.8203 90.0547 17.5938 90.0547 18.4375V19.1406C90.0547 19.9023 90.1602 20.6055 90.3711 21.25C90.5938 21.8945 90.9043 22.4512 91.3027 22.9199C91.7129 23.3887 92.2051 23.752 92.7793 24.0098C93.3652 24.2676 94.0273 24.3965 94.7656 24.3965C95.6797 24.3965 96.5293 24.2207 97.3145 23.8691C98.1113 23.5059 98.7969 22.9609 99.3711 22.2344L101.832 24.9062C101.434 25.4805 100.889 26.0312 100.197 26.5586C99.5176 27.0859 98.6973 27.5195 97.7363 27.8594C96.7754 28.1875 95.6797 28.3516 94.4492 28.3516ZM113.891 28.3516C112.414 28.3516 111.09 28.1172 109.918 27.6484C108.746 27.168 107.75 26.5059 106.93 25.6621C106.121 24.8184 105.5 23.8398 105.066 22.7266C104.633 21.6016 104.416 20.4062 104.416 19.1406V18.4375C104.416 16.9961 104.621 15.6777 105.031 14.4824C105.441 13.2871 106.027 12.25 106.789 11.3711C107.562 10.4922 108.5 9.81836 109.602 9.34961C110.703 8.86914 111.945 8.62891 113.328 8.62891C114.676 8.62891 115.871 8.85156 116.914 9.29688C117.957 9.74219 118.83 10.375 119.533 11.1953C120.248 12.0156 120.787 13 121.15 14.1484C121.514 15.2852 121.695 16.5508 121.695 17.9453V20.0547H106.578V16.6797H116.721V16.293C116.721 15.5898 116.592 14.9629 116.334 14.4121C116.088 13.8496 115.713 13.4043 115.209 13.0762C114.705 12.748 114.061 12.584 113.275 12.584C112.607 12.584 112.033 12.7305 111.553 13.0234C111.072 13.3164 110.68 13.7266 110.375 14.2539C110.082 14.7812 109.859 15.4023 109.707 16.1172C109.566 16.8203 109.496 17.5938 109.496 18.4375V19.1406C109.496 19.9023 109.602 20.6055 109.812 21.25C110.035 21.8945 110.346 22.4512 110.744 22.9199C111.154 23.3887 111.646 23.752 112.221 24.0098C112.807 24.2676 113.469 24.3965 114.207 24.3965C115.121 24.3965 115.971 24.2207 116.756 23.8691C117.553 23.5059 118.238 22.9609 118.812 22.2344L121.273 24.9062C120.875 25.4805 120.33 26.0312 119.639 26.5586C118.959 27.0859 118.139 27.5195 117.178 27.8594C116.217 28.1875 115.121 28.3516 113.891 28.3516ZM129.641 0.982422V28H124.578V0.982422H129.641ZM141.629 8.98047L133.367 18.4023L128.938 22.8848L127.092 19.2285L130.607 14.7637L135.547 8.98047H141.629ZM136.373 28L130.748 19.2109L134.246 16.1523L142.209 28H136.373ZM152.211 28.3516C150.734 28.3516 149.41 28.1172 148.238 27.6484C147.066 27.168 146.07 26.5059 145.25 25.6621C144.441 24.8184 143.82 23.8398 143.387 22.7266C142.953 21.6016 142.736 20.4062 142.736 19.1406V18.4375C142.736 16.9961 142.941 15.6777 143.352 14.4824C143.762 13.2871 144.348 12.25 145.109 11.3711C145.883 10.4922 146.82 9.81836 147.922 9.34961C149.023 8.86914 150.266 8.62891 151.648 8.62891C152.996 8.62891 154.191 8.85156 155.234 9.29688C156.277 9.74219 157.15 10.375 157.854 11.1953C158.568 12.0156 159.107 13 159.471 14.1484C159.834 15.2852 160.016 16.5508 160.016 17.9453V20.0547H144.898V16.6797H155.041V16.293C155.041 15.5898 154.912 14.9629 154.654 14.4121C154.408 13.8496 154.033 13.4043 153.529 13.0762C153.025 12.748 152.381 12.584 151.596 12.584C150.928 12.584 150.354 12.7305 149.873 13.0234C149.393 13.3164 149 13.7266 148.695 14.2539C148.402 14.7812 148.18 15.4023 148.027 16.1172C147.887 16.8203 147.816 17.5938 147.816 18.4375V19.1406C147.816 19.9023 147.922 20.6055 148.133 21.25C148.355 21.8945 148.666 22.4512 149.064 22.9199C149.475 23.3887 149.967 23.752 150.541 24.0098C151.127 24.2676 151.789 24.3965 152.527 24.3965C153.441 24.3965 154.291 24.2207 155.076 23.8691C155.873 23.5059 156.559 22.9609 157.133 22.2344L159.594 24.9062C159.195 25.4805 158.65 26.0312 157.959 26.5586C157.279 27.0859 156.459 27.5195 155.498 27.8594C154.537 28.1875 153.441 28.3516 152.211 28.3516ZM167.961 13.1289V28H162.898V8.98047H167.662L167.961 13.1289ZM173.691 8.85742L173.604 13.5508C173.357 13.5156 173.059 13.4863 172.707 13.4629C172.367 13.4277 172.057 13.4102 171.775 13.4102C171.061 13.4102 170.439 13.5039 169.912 13.6914C169.396 13.8672 168.963 14.1309 168.611 14.4824C168.271 14.834 168.014 15.2617 167.838 15.7656C167.674 16.2695 167.58 16.8438 167.557 17.4883L166.537 17.1719C166.537 15.9414 166.66 14.8105 166.906 13.7793C167.152 12.7363 167.51 11.8281 167.979 11.0547C168.459 10.2812 169.045 9.68359 169.736 9.26172C170.428 8.83984 171.219 8.62891 172.109 8.62891C172.391 8.62891 172.678 8.65234 172.971 8.69922C173.264 8.73438 173.504 8.78711 173.691 8.85742ZM185.363 2.40625H194.908C196.865 2.40625 198.547 2.69922 199.953 3.28516C201.371 3.87109 202.461 4.73828 203.223 5.88672C203.984 7.03516 204.365 8.44727 204.365 10.123C204.365 11.4941 204.131 12.6719 203.662 13.6562C203.205 14.6289 202.555 15.4434 201.711 16.0996C200.879 16.7441 199.9 17.2598 198.775 17.6465L197.105 18.5254H188.809L188.773 14.4121H194.943C195.869 14.4121 196.637 14.248 197.246 13.9199C197.855 13.5918 198.312 13.1348 198.617 12.5488C198.934 11.9629 199.092 11.2832 199.092 10.5098C199.092 9.68945 198.939 8.98047 198.635 8.38281C198.33 7.78516 197.867 7.32812 197.246 7.01172C196.625 6.69531 195.846 6.53711 194.908 6.53711H190.637V28H185.363V2.40625ZM199.672 28L193.836 16.5918L199.408 16.5566L205.314 27.7539V28H199.672ZM216.863 28.3516C215.387 28.3516 214.062 28.1172 212.891 27.6484C211.719 27.168 210.723 26.5059 209.902 25.6621C209.094 24.8184 208.473 23.8398 208.039 22.7266C207.605 21.6016 207.389 20.4062 207.389 19.1406V18.4375C207.389 16.9961 207.594 15.6777 208.004 14.4824C208.414 13.2871 209 12.25 209.762 11.3711C210.535 10.4922 211.473 9.81836 212.574 9.34961C213.676 8.86914 214.918 8.62891 216.301 8.62891C217.648 8.62891 218.844 8.85156 219.887 9.29688C220.93 9.74219 221.803 10.375 222.506 11.1953C223.221 12.0156 223.76 13 224.123 14.1484C224.486 15.2852 224.668 16.5508 224.668 17.9453V20.0547H209.551V16.6797H219.693V16.293C219.693 15.5898 219.564 14.9629 219.307 14.4121C219.061 13.8496 218.686 13.4043 218.182 13.0762C217.678 12.748 217.033 12.584 216.248 12.584C215.58 12.584 215.006 12.7305 214.525 13.0234C214.045 13.3164 213.652 13.7266 213.348 14.2539C213.055 14.7812 212.832 15.4023 212.68 16.1172C212.539 16.8203 212.469 17.5938 212.469 18.4375V19.1406C212.469 19.9023 212.574 20.6055 212.785 21.25C213.008 21.8945 213.318 22.4512 213.717 22.9199C214.127 23.3887 214.619 23.752 215.193 24.0098C215.779 24.2676 216.441 24.3965 217.18 24.3965C218.094 24.3965 218.943 24.2207 219.729 23.8691C220.525 23.5059 221.211 22.9609 221.785 22.2344L224.246 24.9062C223.848 25.4805 223.303 26.0312 222.611 26.5586C221.932 27.0859 221.111 27.5195 220.15 27.8594C219.189 28.1875 218.094 28.3516 216.863 28.3516ZM232.508 13.041V28H227.445V8.98047H232.191L232.508 13.041ZM231.77 17.8223H230.398C230.398 16.416 230.58 15.1504 230.943 14.0254C231.307 12.8887 231.816 11.9219 232.473 11.125C233.129 10.3164 233.908 9.70117 234.811 9.2793C235.725 8.8457 236.744 8.62891 237.869 8.62891C238.76 8.62891 239.574 8.75781 240.312 9.01562C241.051 9.27344 241.684 9.68359 242.211 10.2461C242.75 10.8086 243.16 11.5527 243.441 12.4785C243.734 13.4043 243.881 14.5352 243.881 15.8711V28H238.783V15.8535C238.783 15.0098 238.666 14.3535 238.432 13.8848C238.197 13.416 237.852 13.0879 237.395 12.9004C236.949 12.7012 236.398 12.6016 235.742 12.6016C235.062 12.6016 234.471 12.7363 233.967 13.0059C233.475 13.2754 233.064 13.6504 232.736 14.1309C232.42 14.5996 232.18 15.1504 232.016 15.7832C231.852 16.416 231.77 17.0957 231.77 17.8223ZM257.047 8.98047V12.5664H245.973V8.98047H257.047ZM248.715 4.28711H253.777V22.2695C253.777 22.8203 253.848 23.2422 253.988 23.5352C254.141 23.8281 254.363 24.0332 254.656 24.1504C254.949 24.2559 255.318 24.3086 255.764 24.3086C256.08 24.3086 256.361 24.2969 256.607 24.2734C256.865 24.2383 257.082 24.2031 257.258 24.168L257.275 27.8945C256.842 28.0352 256.373 28.1465 255.869 28.2285C255.365 28.3105 254.809 28.3516 254.199 28.3516C253.086 28.3516 252.113 28.1699 251.281 27.8066C250.461 27.4316 249.828 26.834 249.383 26.0137C248.938 25.1934 248.715 24.1152 248.715 22.7793V4.28711ZM270.195 23.7109V15.2383C270.195 14.6289 270.096 14.1074 269.896 13.6738C269.697 13.2285 269.387 12.8828 268.965 12.6367C268.555 12.3906 268.021 12.2676 267.365 12.2676C266.803 12.2676 266.316 12.3672 265.906 12.5664C265.496 12.7539 265.18 13.0293 264.957 13.3926C264.734 13.7441 264.623 14.1602 264.623 14.6406H259.561C259.561 13.832 259.748 13.0645 260.123 12.3379C260.498 11.6113 261.043 10.9727 261.758 10.4219C262.473 9.85938 263.322 9.41992 264.307 9.10352C265.303 8.78711 266.416 8.62891 267.646 8.62891C269.123 8.62891 270.436 8.875 271.584 9.36719C272.732 9.85938 273.635 10.5977 274.291 11.582C274.959 12.5664 275.293 13.7969 275.293 15.2734V23.4121C275.293 24.4551 275.357 25.3105 275.486 25.9785C275.615 26.6348 275.803 27.209 276.049 27.7012V28H270.934C270.688 27.4844 270.5 26.8398 270.371 26.0664C270.254 25.2812 270.195 24.4961 270.195 23.7109ZM270.863 16.416L270.898 19.2812H268.068C267.4 19.2812 266.82 19.3574 266.328 19.5098C265.836 19.6621 265.432 19.8789 265.115 20.1602C264.799 20.4297 264.564 20.7461 264.412 21.1094C264.271 21.4727 264.201 21.8711 264.201 22.3047C264.201 22.7383 264.301 23.1309 264.5 23.4824C264.699 23.8223 264.986 24.0918 265.361 24.291C265.736 24.4785 266.176 24.5723 266.68 24.5723C267.441 24.5723 268.104 24.4199 268.666 24.1152C269.229 23.8105 269.662 23.4355 269.967 22.9902C270.283 22.5449 270.447 22.123 270.459 21.7246L271.795 23.8691C271.607 24.3496 271.35 24.8477 271.021 25.3633C270.705 25.8789 270.301 26.3652 269.809 26.8223C269.316 27.2676 268.725 27.6367 268.033 27.9297C267.342 28.2109 266.521 28.3516 265.572 28.3516C264.365 28.3516 263.27 28.1113 262.285 27.6309C261.312 27.1387 260.539 26.4648 259.965 25.6094C259.402 24.7422 259.121 23.7578 259.121 22.6562C259.121 21.6602 259.309 20.7754 259.684 20.002C260.059 19.2285 260.609 18.5781 261.336 18.0508C262.074 17.5117 262.994 17.1074 264.096 16.8379C265.197 16.5566 266.475 16.416 267.928 16.416H270.863ZM284.539 1V28H279.459V1H284.539ZM299.006 22.7441C299.006 22.3809 298.9 22.0527 298.689 21.7598C298.479 21.4668 298.086 21.1973 297.512 20.9512C296.949 20.6934 296.135 20.459 295.068 20.248C294.107 20.0371 293.211 19.7734 292.379 19.457C291.559 19.1289 290.844 18.7363 290.234 18.2793C289.637 17.8223 289.168 17.2832 288.828 16.6621C288.488 16.0293 288.318 15.3086 288.318 14.5C288.318 13.7031 288.488 12.9531 288.828 12.25C289.18 11.5469 289.678 10.9258 290.322 10.3867C290.979 9.83594 291.775 9.4082 292.713 9.10352C293.662 8.78711 294.729 8.62891 295.912 8.62891C297.564 8.62891 298.982 8.89258 300.166 9.41992C301.361 9.94727 302.275 10.6738 302.908 11.5996C303.553 12.5137 303.875 13.5566 303.875 14.7285H298.812C298.812 14.2363 298.707 13.7969 298.496 13.4102C298.297 13.0117 297.98 12.7012 297.547 12.4785C297.125 12.2441 296.574 12.127 295.895 12.127C295.332 12.127 294.846 12.2266 294.436 12.4258C294.025 12.6133 293.709 12.8711 293.486 13.1992C293.275 13.5156 293.17 13.8672 293.17 14.2539C293.17 14.5469 293.229 14.8105 293.346 15.0449C293.475 15.2676 293.68 15.4727 293.961 15.6602C294.242 15.8477 294.605 16.0234 295.051 16.1875C295.508 16.3398 296.07 16.4805 296.738 16.6094C298.109 16.8906 299.334 17.2598 300.412 17.7168C301.49 18.1621 302.346 18.7715 302.979 19.5449C303.611 20.3066 303.928 21.3086 303.928 22.5508C303.928 23.3945 303.74 24.168 303.365 24.8711C302.99 25.5742 302.451 26.1895 301.748 26.7168C301.045 27.2324 300.201 27.6367 299.217 27.9297C298.244 28.2109 297.148 28.3516 295.93 28.3516C294.16 28.3516 292.66 28.0352 291.43 27.4023C290.211 26.7695 289.285 25.9668 288.652 24.9941C288.031 24.0098 287.721 23.002 287.721 21.9707H292.52C292.543 22.6621 292.719 23.2188 293.047 23.6406C293.387 24.0625 293.814 24.3672 294.33 24.5547C294.857 24.7422 295.426 24.8359 296.035 24.8359C296.691 24.8359 297.236 24.748 297.67 24.5723C298.104 24.3848 298.432 24.1387 298.654 23.834C298.889 23.5176 299.006 23.1543 299.006 22.7441Z" fill="white"/>
</svg>
